<svg xmlns="http://www.w3.org/2000/svg" width="1800" height="560" viewBox="0 0 1800 560" role="img" aria-labelledby="title desc">
  <title id="title">copyagent premium icon directions V2</title>
  <desc id="desc">Five premium macOS app icon directions for copyagent.</desc>
  <defs>
    <radialGradient id="bg1" cx="30%" cy="18%" r="85%"><stop offset="0" stop-color="#1BF2FF"/><stop offset="0.35" stop-color="#4C63FF"/><stop offset="1" stop-color="#070A1A"/></radialGradient>
    <radialGradient id="bg2" cx="35%" cy="10%" r="90%"><stop offset="0" stop-color="#7EFDD0"/><stop offset="0.42" stop-color="#223047"/><stop offset="1" stop-color="#090B10"/></radialGradient>
    <radialGradient id="bg3" cx="50%" cy="15%" r="92%"><stop offset="0" stop-color="#7B61FF"/><stop offset="0.45" stop-color="#172554"/><stop offset="1" stop-color="#050713"/></radialGradient>
    <radialGradient id="bg4" cx="32%" cy="18%" r="90%"><stop offset="0" stop-color="#74F5FF"/><stop offset="0.4" stop-color="#6D5DFF"/><stop offset="1" stop-color="#10121A"/></radialGradient>
    <radialGradient id="bg5" cx="54%" cy="12%" r="88%"><stop offset="0" stop-color="#0FDCFF"/><stop offset="0.46" stop-color="#111827"/><stop offset="1" stop-color="#050505"/></radialGradient>
    <linearGradient id="glassCyan" x1="0" y1="0" x2="1" y2="1"><stop offset="0" stop-color="#FFFFFF" stop-opacity="0.96"/><stop offset="0.42" stop-color="#8EF7FF" stop-opacity="0.86"/><stop offset="1" stop-color="#6D5DFF" stop-opacity="0.9"/></linearGradient>
    <linearGradient id="glassSilver" x1="0" y1="0" x2="1" y2="1"><stop offset="0" stop-color="#FFFFFF"/><stop offset="0.55" stop-color="#B9F8FF"/><stop offset="1" stop-color="#8B5CF6"/></linearGradient>
    <linearGradient id="glassMint" x1="0" y1="0" x2="1" y2="1"><stop offset="0" stop-color="#F8FAFC"/><stop offset="0.55" stop-color="#5EEAD4"/><stop offset="1" stop-color="#38BDF8"/></linearGradient>
    <linearGradient id="glassSmoke" x1="0" y1="0" x2="1" y2="1"><stop offset="0" stop-color="#F8FAFC" stop-opacity="0.9"/><stop offset="0.35" stop-color="#94A3B8" stop-opacity="0.55"/><stop offset="1" stop-color="#111827" stop-opacity="0.9"/></linearGradient>
    <filter id="cardShadow" x="-20%" y="-20%" width="140%" height="150%"><feDropShadow dx="0" dy="28" stdDeviation="26" flood-color="#020617" flood-opacity="0.24"/></filter>
    <filter id="glowCyan" x="-70%" y="-70%" width="240%" height="240%"><feGaussianBlur stdDeviation="8" result="b"/><feMerge><feMergeNode in="b"/><feMergeNode in="SourceGraphic"/></feMerge></filter>
    <style>
      .caption{font:700 22px -apple-system,BlinkMacSystemFont,"SF Pro Display",Inter,sans-serif;fill:#111827;text-anchor:middle;letter-spacing:-.02em}.note{font:500 13px -apple-system,BlinkMacSystemFont,"SF Pro Text",Inter,sans-serif;fill:#64748B;text-anchor:middle}.tiny{font:600 12px -apple-system,BlinkMacSystemFont,"SF Pro Text",Inter,sans-serif;fill:#94A3B8;text-anchor:middle;letter-spacing:.08em}.glassLine{fill:none;stroke-linecap:round;stroke-linejoin:round}.shine{fill:none;stroke:#fff;stroke-opacity:.48;stroke-width:2}.orb{fill:#9DFF6A;filter:url(#glowCyan)}
    </style>
  </defs>
  <rect width="1800" height="560" fill="#F1F5F9"/>
  <text x="900" y="54" font-family="-apple-system,BlinkMacSystemFont,'SF Pro Display',Inter,sans-serif" font-size="28" font-weight="800" text-anchor="middle" fill="#0F172A" letter-spacing="-.03em">copyagent icon directions — V2</text>
  <text x="900" y="84" font-family="-apple-system,BlinkMacSystemFont,'SF Pro Text',Inter,sans-serif" font-size="14" font-weight="500" text-anchor="middle" fill="#64748B">更偏品牌符号，不再做功能说明图；适合作为 AI 出图/后续精修方向</text>

  <g transform="translate(80 125)">
    <rect width="260" height="260" rx="60" fill="url(#bg1)" filter="url(#cardShadow)"/>
    <path d="M87 72h86c12 0 22 10 22 22v86c0 12-10 22-22 22H87c-12 0-22-10-22-22V94c0-12 10-22 22-22z" fill="url(#glassCyan)" opacity=".86"/>
    <path d="M107 48h46c10 0 18 8 18 18v28H89V66c0-10 8-18 18-18z" fill="url(#glassCyan)" opacity=".95"/>
    <path d="M52 87c52-18 89-9 115 28 16 23 32 37 57 36" class="glassLine" stroke="#CFFAFE" stroke-width="16" opacity=".55"/>
    <path d="M50 85c51-13 87 0 111 32" class="glassLine" stroke="#fff" stroke-width="5" opacity=".82"/>
    <path d="M87 72h86c12 0 22 10 22 22v86" class="shine"/>
    <circle cx="213" cy="150" r="7" class="orb"/>
    <text class="caption" x="130" y="314">01 Aurora Portal</text><text class="note" x="130" y="338">剪切板作为发光入口</text>
  </g>

  <g transform="translate(430 125)">
    <rect width="260" height="260" rx="60" fill="url(#bg2)" filter="url(#cardShadow)"/>
    <path d="M101 75c28-34 91-12 82 41-8 47-82 50-99 7-15-38 21-71 56-58 35 13 32 60 1 73-28 12-55-2-65-25" class="glassLine" stroke="url(#glassSilver)" stroke-width="27"/>
    <path d="M101 75c28-34 91-12 82 41-8 47-82 50-99 7" class="glassLine" stroke="#fff" stroke-width="5" opacity=".55"/>
    <circle cx="112" cy="119" r="5" fill="#083344" opacity=".8"/><circle cx="151" cy="119" r="5" fill="#083344" opacity=".8"/>
    <circle cx="112" cy="119" r="9" fill="#67E8F9" opacity=".28" filter="url(#glowCyan)"/><circle cx="151" cy="119" r="9" fill="#67E8F9" opacity=".28" filter="url(#glowCyan)"/>
    <text class="caption" x="130" y="314">02 Neural Clip</text><text class="note" x="130" y="338">纸夹 + agent 头部</text>
  </g>

  <g transform="translate(780 125)">
    <rect width="260" height="260" rx="60" fill="url(#bg3)" filter="url(#cardShadow)"/>
    <path d="M66 91c0-20 16-36 36-36h73c20 0 36 16 36 36v49c0 20-16 36-36 36h-30l-39 31 6-31h-10c-20 0-36-16-36-36V91z" fill="url(#glassCyan)" opacity=".9"/>
    <path d="M91 116h67" class="glassLine" stroke="#0F172A" stroke-width="12" opacity=".65"/>
    <path d="M145 94l30 22-30 22" class="glassLine" stroke="#0F172A" stroke-width="12" opacity=".65"/>
    <path d="M85 72c28-12 63-12 104 2" class="shine" stroke-width="4"/>
    <circle cx="196" cy="70" r="6" class="orb"/>
    <text class="caption" x="130" y="314">03 Command Capsule</text><text class="note" x="130" y="338">聊天命令被路由</text>
  </g>

  <g transform="translate(1130 125)">
    <rect width="260" height="260" rx="60" fill="url(#bg4)" filter="url(#cardShadow)"/>
    <rect x="64" y="80" width="82" height="106" rx="25" fill="url(#glassSilver)" opacity=".88" transform="rotate(-12 105 133)"/>
    <rect x="116" y="58" width="88" height="120" rx="27" fill="url(#glassCyan)" opacity=".92" transform="rotate(12 160 118)"/>
    <path d="M82 166c32 35 88 35 112-8" class="glassLine" stroke="#DFFFFF" stroke-width="15" opacity=".6"/>
    <path d="M180 137l19 22-29 7" class="glassLine" stroke="#DFFFFF" stroke-width="15" opacity=".66"/>
    <path d="M139 66c22-8 42-6 61 5" class="shine" stroke-width="4"/>
    <text class="caption" x="130" y="314">04 Relay Gem</text><text class="note" x="130" y="338">本机安全转运感</text>
  </g>

  <g transform="translate(1480 125)">
    <rect width="260" height="260" rx="60" fill="url(#bg5)" filter="url(#cardShadow)"/>
    <path d="M91 50h78c19 0 35 16 35 35v96c0 19-16 35-35 35H91c-19 0-35-16-35-35V85c0-19 16-35 35-35z" fill="url(#glassSmoke)" opacity=".88"/>
    <path d="M130 56v150" class="glassLine" stroke="#67E8F9" stroke-width="8" opacity=".72" filter="url(#glowCyan)"/>
    <path d="M88 53c-17 5-30 20-30 39v89c0 18 12 33 28 38" class="shine" stroke-width="4"/>
    <circle cx="193" cy="88" r="8" class="orb"/>
    <path d="M178 74c21 14 25 40 8 59" class="glassLine" stroke="#9DFF6A" stroke-width="5" opacity=".42"/>
    <text class="caption" x="130" y="314">05 Monolith</text><text class="note" x="130" y="338">更高级、克制、耐看</text>
  </g>
</svg>
